<?xml version="1.0"?>
<!DOCTYPE svg PUBLIC "-//W3C//DTD SVG 1.1//EN" "http://www.w3.org/Graphics/SVG/1.1/DTD/svg11.dtd">
<!--Phoronix Test Suite v9.6.0 [ http://www.phoronix-test-suite.com/ ]-->
<svg xmlns="http://www.w3.org/2000/svg" xmlns:xlink="http://www.w3.org/1999/xlink" version="1.1" font-family="sans-serif, droid-sans, helvetica, verdana, tahoma" viewbox="0 0 600 149" width="600" height="149" preserveAspectRatio="xMinYMin meet"><rect x="0" y="0" width="600" height="149" fill="#FEFEFE"/><g stroke="#757575" stroke-width="1"><line x1="323" y1="64" x2="323" y2="111"/><line x1="323" y1="110" x2="586" y2="110"/></g><a xlink:href="https://www.phoronix-test-suite.com/" xlink:show="new"><text x="585" y="59" font-size="8" fill="#065695" text-anchor="end" font-weight="bold" xlink:show="new">Phoronix Test Suite 9.4.1</text></a><polygon points="323,56 332,60.5 332,51.5" fill="#065695" stroke="#949494" stroke-width="1"/><text x="335" y="59" font-size="8" font-weight="bold" fill="#065695" text-anchor="start">Milliseconds, Fewer Is Better</text><a xlink:href="https://openbenchmarking.org/test/pts/pybench-1.1.3" xlink:show="new"><text x="6" y="19" font-size="17" fill="#231f20" text-anchor="start" xlink:show="new" font-weight="bold">PyBench v2018-02-16</text></a><text x="6" y="36" font-size="11" font-weight="bold" fill="#231f20" text-anchor="start">Total For Average Test Times</text><a xlink:href="https://www.phoronix-test-suite.com/" xlink:show="new"><path d="m74 22v9m-5-16v16m-5-28v28m-23-2h12.5c2.485281 0 4.5-2.014719 4.5-4.5s-2.014719-4.5-4.5-4.5h-8c-2.485281 0-4.5-2.014719-4.5-4.5s2.014719-4.5 4.5-4.5h12.5m-21 5h-11m11 13h-2c-4.970563 0-9-4.029437-9-9v-20m-24 40v-20c0-4.970563 4.0294373-9 9-9 4.970563 0 9 4.029437 9 9s-4.029437 9-9 9h-9" stroke="#231f20" stroke-width="4" fill="none" xlink:show="new" transform="translate(508,4)"/></a><g font-size="11" fill="#231f20" font-weight="bold"><text x="318" y="85" text-anchor="end">TOSHIBA HDWA130 - AMD Ryzen 5 2600 Six-Core</text></g><g font-size="10" fill="#065695" text-anchor="middle"><text x="369" y="125">400</text><text x="413" y="125">800</text><text x="457" y="125">1200</text><text x="501" y="125">1600</text><text x="545" y="125">2000</text></g><g stroke="#BABABA" stroke-width="1"><line x1="369" y1="64" x2="369" y2="105" stroke-dasharray="5,5"/><line x1="369" y1="106" x2="369" y2="115"/><line x1="413" y1="64" x2="413" y2="105" stroke-dasharray="5,5"/><line x1="413" y1="106" x2="413" y2="115"/><line x1="457" y1="64" x2="457" y2="105" stroke-dasharray="5,5"/><line x1="457" y1="106" x2="457" y2="115"/><line x1="501" y1="64" x2="501" y2="105" stroke-dasharray="5,5"/><line x1="501" y1="106" x2="501" y2="115"/><line x1="545" y1="64" x2="545" y2="105" stroke-dasharray="5,5"/><line x1="545" y1="106" x2="545" y2="115"/></g><g stroke="#949494" stroke-width="1"><rect x="323" y="70" height="34" width="184" fill="#a90420"/></g><g font-size="8" fill="#065695" text-anchor="end"><text y="101" x="318">SE +/- 2.91, N = 3</text></g><g font-size="10" fill="#FFFFFF" font-weight="bold" text-anchor="end"><text x="502" y="93">1690</text></g></svg>
