<?xml version="1.0"?>
<!DOCTYPE svg PUBLIC "-//W3C//DTD SVG 1.1//EN" "http://www.w3.org/Graphics/SVG/1.1/DTD/svg11.dtd">
<!--Phoronix Test Suite v9.6.0 [ http://www.phoronix-test-suite.com/ ]-->
<svg xmlns="http://www.w3.org/2000/svg" xmlns:xlink="http://www.w3.org/1999/xlink" version="1.1" font-family="sans-serif, droid-sans, helvetica, verdana, tahoma" viewbox="0 0 600 182" width="600" height="182" preserveAspectRatio="xMinYMin meet"><rect x="0" y="0" width="600" height="182" fill="#FEFEFE"/><g stroke="#757575" stroke-width="1"><line x1="123" y1="64" x2="123" y2="111"/><line x1="123" y1="110" x2="586" y2="110"/></g><a xlink:href="https://www.phoronix-test-suite.com/" xlink:show="new"><text x="585" y="59" font-size="8" fill="#065695" text-anchor="end" font-weight="bold" xlink:show="new">Phoronix Test Suite 9.6.0</text></a><polygon points="123,56 132,60.5 132,51.5" fill="#065695" stroke="#949494" stroke-width="1"/><text x="135" y="59" font-size="8" font-weight="bold" fill="#065695" text-anchor="start">Seconds, Fewer Is Better</text><a xlink:href="https://openbenchmarking.org/test/pts/sqlite-2.1.0" xlink:show="new"><text x="6" y="19" font-size="17" fill="#231f20" text-anchor="start" xlink:show="new" font-weight="bold">SQLite v3.30.1</text></a><text x="6" y="36" font-size="11" font-weight="bold" fill="#231f20" text-anchor="start">Threads / Copies: 32</text><a xlink:href="https://www.phoronix-test-suite.com/" xlink:show="new"><path d="m74 22v9m-5-16v16m-5-28v28m-23-2h12.5c2.485281 0 4.5-2.014719 4.5-4.5s-2.014719-4.5-4.5-4.5h-8c-2.485281 0-4.5-2.014719-4.5-4.5s2.014719-4.5 4.5-4.5h12.5m-21 5h-11m11 13h-2c-4.970563 0-9-4.029437-9-9v-20m-24 40v-20c0-4.970563 4.0294373-9 9-9 4.970563 0 9 4.029437 9 9s-4.029437 9-9 9h-9" stroke="#231f20" stroke-width="4" fill="none" xlink:show="new" transform="translate(508,4)"/></a><g font-size="11" fill="#231f20" font-weight="bold"><text x="118" y="85" text-anchor="end">TOSHIBA HDWA130</text></g><g font-size="10" fill="#065695" text-anchor="middle"><text x="202" y="125">110</text><text x="279" y="125">220</text><text x="356" y="125">330</text><text x="433" y="125">440</text><text x="510" y="125">550</text></g><g stroke="#BABABA" stroke-width="1"><line x1="202" y1="64" x2="202" y2="105" stroke-dasharray="5,5"/><line x1="202" y1="106" x2="202" y2="115"/><line x1="279" y1="64" x2="279" y2="105" stroke-dasharray="5,5"/><line x1="279" y1="106" x2="279" y2="115"/><line x1="356" y1="64" x2="356" y2="105" stroke-dasharray="5,5"/><line x1="356" y1="106" x2="356" y2="115"/><line x1="433" y1="64" x2="433" y2="105" stroke-dasharray="5,5"/><line x1="433" y1="106" x2="433" y2="115"/><line x1="510" y1="64" x2="510" y2="105" stroke-dasharray="5,5"/><line x1="510" y1="106" x2="510" y2="115"/></g><g stroke="#949494" stroke-width="1"><rect x="123" y="70" height="34" width="359" fill="#2196f3"/></g><g font-size="8" fill="#065695" text-anchor="end"><text y="101" x="118">SE +/- 1.56, N = 3</text></g><g font-size="10" fill="#FFFFFF" font-weight="bold" text-anchor="end"><text x="477" y="93">512.26</text></g><text x="5" y="150" font-size="8" fill="#231f20" text-anchor="start" xlink:title="-O2 -lz -lm -ldl -lpthread" width="595">1. (CC) gcc options: -O2 -lz -lm -ldl -lpthread</text></svg>
