<?xml version="1.0"?>
<!DOCTYPE svg PUBLIC "-//W3C//DTD SVG 1.1//EN" "http://www.w3.org/Graphics/SVG/1.1/DTD/svg11.dtd">
<!--Phoronix Test Suite v9.6.0 [ http://www.phoronix-test-suite.com/ ]-->
<svg xmlns="http://www.w3.org/2000/svg" xmlns:xlink="http://www.w3.org/1999/xlink" version="1.1" font-family="sans-serif, droid-sans, helvetica, verdana, tahoma" viewbox="0 0 354 233" width="354" height="233" preserveAspectRatio="xMinYMin meet"><rect x="0" y="0" width="354" height="233" fill="#FEFEFE"/><rect x="1" y="1" width="353" height="232" fill="#FEFEFE" stroke="#757575" stroke-width="1"/><path d="m74 22v9m-5-16v16m-5-28v28m-23-2h12.5c2.485281 0 4.5-2.014719 4.5-4.5s-2.014719-4.5-4.5-4.5h-8c-2.485281 0-4.5-2.014719-4.5-4.5s2.014719-4.5 4.5-4.5h12.5m-21 5h-11m11 13h-2c-4.970563 0-9-4.029437-9-9v-20m-24 40v-20c0-4.970563 4.0294373-9 9-9 4.970563 0 9 4.029437 9 9s-4.029437 9-9 9h-9" stroke="#000000" stroke-width="4" fill="none" transform="translate(78,28)"/><line x1="236" y1="121" x2="354" y2="121" stroke="#BABABA" stroke-width="192" stroke-dasharray="118,118"/><line x1="177" y1="73" x2="177" y2="217" stroke="#949494" stroke-width="354" stroke-dasharray="16,16"/><line x1="236" y1="121" x2="354" y2="121" stroke="#757575" stroke-width="192" stroke-dasharray="1,117"/><rect x="1" y="1" width="352" height="25" fill="#231f20"/><text x="5" y="19" font-size="17" fill="#FEFEFE" text-anchor="start">podmancloud</text><line x1="1" y1="25" x2="353" y2="25" stroke="#757575" stroke-width="1"/><g font-size="10" font-weight="bold" fill="#065695" text-anchor="end"><a xlink:href="https://openbenchmarking.org/test/pts/sqlite-2.1.0" xlink:show="new"><text x="234" y="85">sqlite: 1</text></a><a xlink:href="https://openbenchmarking.org/test/pts/sqlite-2.1.0" xlink:show="new"><text x="234" y="101">sqlite: 32</text></a><a xlink:href="https://openbenchmarking.org/test/pts/blogbench-1.1.0" xlink:show="new"><text x="234" y="117">blogbench: Read</text></a><a xlink:href="https://openbenchmarking.org/test/pts/blogbench-1.1.0" xlink:show="new"><text x="234" y="133">blogbench: Write</text></a><a xlink:href="https://openbenchmarking.org/test/pts/redis-1.2.0" xlink:show="new"><text x="234" y="149">redis: GET</text></a><a xlink:href="https://openbenchmarking.org/test/pts/redis-1.2.0" xlink:show="new"><text x="234" y="165">redis: SET</text></a><a xlink:href="https://openbenchmarking.org/test/pts/cassandra-1.0.3" xlink:show="new"><text x="234" y="181">cassandra: Mixed 1:1</text></a><a xlink:href="https://openbenchmarking.org/test/pts/nginx-1.2.2" xlink:show="new"><text x="234" y="197">nginx: Static Web Page Serving</text></a><a xlink:href="https://openbenchmarking.org/test/pts/apache-1.7.2" xlink:show="new"><text x="234" y="213">apache: Static Web Page Serving</text></a></g><g font-size="10" fill="#065695" font-weight="bold" text-anchor="middle" dominant-baseline="text-before-edge"><text x="295" y="49">TOSHIBA HDWA130</text></g><g fill="#BABABA"/><g text-anchor="middle" font-size="10" fill="#065695"><text x="295" y="86" xlink:title="STD Dev: 0.46%;  STD Error: 0.23">87.751</text><text x="295" y="102" xlink:title="STD Dev: 0.53%;  STD Error: 1.56">512.260</text><text x="295" y="118" xlink:title="STD Dev: 4.76%;  STD Error: 27344.36">1722332</text><text x="295" y="134" xlink:title="STD Dev: 0.94%;  STD Error: 59.13">10840</text><text x="295" y="150" xlink:title="STD Dev: 2.99%;  STD Error: 23552.48">2227006.25</text><text x="295" y="166" xlink:title="STD Dev: 0.93%;  STD Error: 8203.89">1524478.12</text><text x="295" y="182" xlink:title="STD Dev: 5.33%;  STD Error: 527.89">31306</text><text x="295" y="198" xlink:title="STD Dev: 0.77%;  STD Error: 128.62">28985.36</text><text x="295" y="214" xlink:title="STD Dev: 0.28%;  STD Error: 39.89">24496.95</text></g><line x1="177" y1="73" x2="177" y2="217" stroke="#949494" stroke-width="354" stroke-dasharray="1,15"/><rect x="0" y="217" width="354" height="16" fill="#231f20"/><a xlink:href="https://www.phoronix-test-suite.com/" xlink:show="new"><text x="352" y="230" font-size="10" fill="#FFFFFF" text-anchor="end" xlink:show="new">Phoronix Test Suite 9.6.0</text></a></svg>
