<?xml version="1.0"?>
<!DOCTYPE svg PUBLIC "-//W3C//DTD SVG 1.1//EN" "http://www.w3.org/Graphics/SVG/1.1/DTD/svg11.dtd">
<!--Phoronix Test Suite v9.6.0 [ http://www.phoronix-test-suite.com/ ]-->
<svg xmlns="http://www.w3.org/2000/svg" xmlns:xlink="http://www.w3.org/1999/xlink" version="1.1" font-family="sans-serif, droid-sans, helvetica, verdana, tahoma" viewbox="0 0 599 297" width="599" height="297" preserveAspectRatio="xMinYMin meet"><rect x="0" y="0" width="599" height="297" fill="#FEFEFE"/><rect x="1" y="1" width="598" height="296" fill="#FEFEFE" stroke="#757575" stroke-width="1"/><path d="m74 22v9m-5-16v16m-5-28v28m-23-2h12.5c2.485281 0 4.5-2.014719 4.5-4.5s-2.014719-4.5-4.5-4.5h-8c-2.485281 0-4.5-2.014719-4.5-4.5s2.014719-4.5 4.5-4.5h12.5m-21 5h-11m11 13h-2c-4.970563 0-9-4.029437-9-9v-20m-24 40v-20c0-4.970563 4.0294373-9 9-9 4.970563 0 9 4.029437 9 9s-4.029437 9-9 9h-9" stroke="#000000" stroke-width="4" fill="none" transform="translate(100,28)"/><line x1="280" y1="153" x2="599" y2="153" stroke="#BABABA" stroke-width="256" stroke-dasharray="319,319"/><line x1="300" y1="73" x2="300" y2="281" stroke="#949494" stroke-width="599" stroke-dasharray="16,16"/><line x1="280" y1="153" x2="599" y2="153" stroke="#757575" stroke-width="256" stroke-dasharray="1,318"/><rect x="1" y="1" width="597" height="25" fill="#231f20"/><text x="5" y="19" font-size="17" fill="#FEFEFE" text-anchor="start">bmhardware</text><line x1="1" y1="25" x2="598" y2="25" stroke="#757575" stroke-width="1"/><g font-size="10" font-weight="bold" fill="#065695" text-anchor="end"><a xlink:href="https://openbenchmarking.org/test/pts/tiobench-1.3.1" xlink:show="new"><text x="278" y="85">tiobench: Read - 32MB - 4</text></a><a xlink:href="https://openbenchmarking.org/test/pts/tiobench-1.3.1" xlink:show="new"><text x="278" y="101">tiobench: Write - 32MB - 4</text></a><a xlink:href="https://openbenchmarking.org/test/pts/ramspeed-1.4.3" xlink:show="new"><text x="278" y="117">ramspeed: Add - Floating Point</text></a><a xlink:href="https://openbenchmarking.org/test/pts/ramspeed-1.4.3" xlink:show="new"><text x="278" y="133">ramspeed: Copy - Floating Point</text></a><a xlink:href="https://openbenchmarking.org/test/pts/ramspeed-1.4.3" xlink:show="new"><text x="278" y="149">ramspeed: Average - Floating Point</text></a><a xlink:href="https://openbenchmarking.org/test/pts/compress-7zip-1.7.1" xlink:show="new"><text x="278" y="165">compress-7zip: Compress Speed Test</text></a><a xlink:href="https://openbenchmarking.org/test/pts/openssl-1.11.0" xlink:show="new"><text x="278" y="181">openssl: RSA 4096-bit Performance</text></a><a xlink:href="https://openbenchmarking.org/test/pts/pybench-1.1.3" xlink:show="new"><text x="278" y="197">pybench: Total For Average Test Times</text></a><a xlink:href="https://openbenchmarking.org/test/pts/osbench-1.0.1" xlink:show="new"><text x="278" y="213">osbench: Create Files</text></a><a xlink:href="https://openbenchmarking.org/test/pts/osbench-1.0.1" xlink:show="new"><text x="278" y="229">osbench: Create Threads</text></a><a xlink:href="https://openbenchmarking.org/test/pts/osbench-1.0.1" xlink:show="new"><text x="278" y="245">osbench: Launch Programs</text></a><a xlink:href="https://openbenchmarking.org/test/pts/osbench-1.0.1" xlink:show="new"><text x="278" y="261">osbench: Create Processes</text></a><a xlink:href="https://openbenchmarking.org/test/pts/osbench-1.0.1" xlink:show="new"><text x="278" y="277">osbench: Memory Allocations</text></a></g><g font-size="10" fill="#065695" font-weight="bold" text-anchor="middle" dominant-baseline="text-before-edge"><text x="440" y="49">TOSHIBA HDWA130 - AMD Ryzen 5 2600 Six-Core</text></g><g fill="#BABABA"/><g text-anchor="middle" font-size="10" fill="#065695"><text x="440" y="86" xlink:title="STD Dev: 15.45%;  STD Error: 384.48">8622.915</text><text x="440" y="102" xlink:title="STD Dev: 1.55%;  STD Error: 0.01">1.368</text><text x="440" y="118" xlink:title="STD Dev: 0.40%;  STD Error: 64.51">27717.44</text><text x="440" y="134" xlink:title="STD Dev: 0.36%;  STD Error: 50.64">24561.43</text><text x="440" y="150" xlink:title="STD Dev: 0.05%;  STD Error: 6.96">25899.19</text><text x="440" y="166" xlink:title="STD Dev: 0.64%;  STD Error: 121.60">32847</text><text x="440" y="182" xlink:title="STD Dev: 0.03%;  STD Error: 0.20">1183.5</text><text x="440" y="198" xlink:title="STD Dev: 0.29%;  STD Error: 2.00">1196</text><text x="440" y="214" xlink:title="STD Dev: 0.94%;  STD Error: 0.09">16.347544</text><text x="440" y="230" xlink:title="STD Dev: 2.86%;  STD Error: 0.23">14.117559</text><text x="440" y="246" xlink:title="STD Dev: 0.88%;  STD Error: 0.24">47.883193</text><text x="440" y="262" xlink:title="STD Dev: 1.86%;  STD Error: 0.27">25.170644</text><text x="440" y="278" xlink:title="STD Dev: 2.86%;  STD Error: 0.66">83.321901</text></g><line x1="300" y1="73" x2="300" y2="281" stroke="#949494" stroke-width="599" stroke-dasharray="1,15"/><rect x="0" y="281" width="599" height="16" fill="#231f20"/><a xlink:href="https://www.phoronix-test-suite.com/" xlink:show="new"><text x="597" y="294" font-size="10" fill="#FFFFFF" text-anchor="end" xlink:show="new">Phoronix Test Suite 9.4.1</text></a></svg>
